<?xml version="1.0" encoding="UTF-8"?>
<svg width="329px" height="95px" viewBox="0 0 329 95" version="1.1" xmlns="http://www.w3.org/2000/svg" xmlns:xlink="http://www.w3.org/1999/xlink">
    <!-- Generator: Sketch 46.2 (44496) - http://www.bohemiancoding.com/sketch -->
    <title>Group 8</title>
    <desc>Created with Sketch.</desc>
    <defs></defs>
    <g id="Page-1" stroke="none" stroke-width="1" fill="none" fill-rule="evenodd">
        <g id="Group-8" transform="translate(0.000000, -3.000000)">
            <path d="M55.8460191,95.1174943 L60.3003285,95.1174943 L60.3003285,96.189828 L36.8739609,96.189828 L36.8739609,95.1174943 L41.8231935,95.1174943 L33.5744725,74.3307174 L15.674748,74.3307174 L6.18871886,95.1174943 L11.1379514,95.1174943 L11.1379514,96.189828 L0.249639761,96.189828 L0.249639761,95.1174943 L4.70394909,95.1174943 L31.5947795,36.799037 L32.6671132,36.799037 L55.8460191,95.1174943 Z M25.2432643,53.3789661 L16.087184,73.1758965 L33.1620365,73.1758965 L25.2432643,53.3789661 Z M72.893376,39.6036021 C68.2740923,39.6036021 64.1497318,39.7685765 61.1801922,41.3358335 C58.1281655,42.9855777 55.983498,46.0376045 55.571062,51.8941964 L54.416241,51.8941964 L54.416241,38.4487812 L104.321003,38.4487812 L104.321003,51.8941964 L103.166182,51.8941964 C102.588772,46.2025789 100.609078,43.0680649 97.6395389,41.4183207 C94.5875122,39.7685765 90.5456389,39.6036021 85.9263551,39.6036021 L85.9263551,95.1174943 L90.8755877,95.1174943 L90.8755877,96.189828 L67.9441434,96.189828 L67.9441434,95.1174943 L72.893376,95.1174943 L72.893376,39.6036021 Z M106.438175,38.4487812 L148.25919,38.4487812 L148.25919,51.8941964 L147.104369,51.8941964 C146.526959,46.0376045 144.629753,42.9855777 141.577726,41.3358335 C138.525699,39.7685765 134.401339,39.6036021 129.782055,39.6036021 L124.420387,39.6036021 L124.420387,66.4944325 L128.46226,66.4944325 C130.689414,66.4944325 132.999056,66.4944325 134.236365,66.2469709 C139.763008,65.6695604 142.237624,62.8649953 142.65006,58.2457115 L143.722394,58.2457115 L143.722394,77.1352826 L142.65006,77.1352826 C142.402598,71.8561011 140.175444,68.4741255 134.318852,67.8967151 C132.751595,67.6492534 130.276978,67.6492534 128.214798,67.6492534 L124.420387,67.6492534 L124.420387,95.0350071 L131.679261,95.0350071 C136.381032,95.0350071 140.58788,94.5400838 143.639906,92.4779036 C146.609446,90.4157233 148.589139,86.6213117 148.919088,80.2697965 L150.073909,80.2697965 L150.073909,96.189828 L106.438175,96.189828 L106.438175,95.1174943 L111.387407,95.1174943 L111.387407,39.5211149 L106.438175,39.5211149 L106.438175,38.4487812 Z M173.885217,95.0350071 L179.741809,95.0350071 C184.44358,95.0350071 188.650427,94.5400838 191.702454,92.4779036 C194.671994,90.4157233 196.651687,86.6213117 196.981636,80.2697965 L198.136457,80.2697965 L198.136457,96.189828 L155.820518,96.189828 L155.820518,95.0350071 L160.76975,95.0350071 L160.76975,39.5211149 L155.820518,39.5211149 L155.820518,38.4487812 L179.576834,38.4487812 L179.576834,39.5211149 L173.885217,39.5211149 L173.885217,95.0350071 Z M218.070866,95.1174943 L223.020098,95.1174943 L223.020098,96.189828 L200.006167,96.189828 L200.006167,95.1174943 L204.955399,95.1174943 L204.955399,39.5211149 L200.006167,39.5211149 L200.006167,38.4487812 L223.020098,38.4487812 L223.020098,39.5211149 L218.070866,39.5211149 L218.070866,95.1174943 Z M230.416452,38.4487812 L272.237467,38.4487812 L272.237467,51.8941964 L271.082646,51.8941964 C270.505236,46.0376045 268.60803,42.9855777 265.556003,41.3358335 C262.503976,39.7685765 258.379616,39.6036021 253.760332,39.6036021 L248.398663,39.6036021 L248.398663,66.4944325 L252.440537,66.4944325 C254.667691,66.4944325 256.977333,66.4944325 258.214641,66.2469709 C263.741284,65.6695604 266.215901,62.8649953 266.628337,58.2457115 L267.70067,58.2457115 L267.70067,77.1352826 L266.628337,77.1352826 C266.380875,71.8561011 264.15372,68.4741255 258.297129,67.8967151 C256.729872,67.6492534 254.255255,67.6492534 252.193075,67.6492534 L248.398663,67.6492534 L248.398663,95.0350071 L255.657538,95.0350071 C260.359309,95.0350071 264.566156,94.5400838 267.618183,92.4779036 C270.587723,90.4157233 272.567416,86.6213117 272.897365,80.2697965 L274.052186,80.2697965 L274.052186,96.189828 L230.416452,96.189828 L230.416452,95.1174943 L235.365684,95.1174943 L235.365684,39.5211149 L230.416452,39.5211149 L230.416452,38.4487812 Z M294.316544,68.6391 L294.316544,95.1174943 L299.265776,95.1174943 L299.265776,96.189828 L276.251845,96.189828 L276.251845,95.1174943 L281.201077,95.1174943 L281.201077,39.6036021 L276.251845,39.6036021 L276.251845,38.4487812 L289.532285,38.4487812 C291.511978,38.4487812 293.409184,38.366294 295.223903,38.2013196 C297.038622,38.1188323 299.183289,38.0363451 301.575418,38.0363451 C305.287343,38.0363451 310.649011,38.8612172 315.020833,41.1708591 C319.310168,43.480501 322.692144,47.3573998 322.692144,53.3789661 C322.692144,57.7507883 320.712451,61.2977383 317.577937,63.6898674 C314.443423,66.0819965 310.071601,67.484279 305.699779,67.7317406 L305.699779,67.8142279 C312.298755,67.8142279 316.340629,69.5464593 318.732758,72.18605 C321.0424,74.9081279 321.702297,78.6200523 321.702297,82.3319768 C321.702297,85.8789268 321.949759,88.4360303 322.444682,90.0032873 C322.857118,91.5705443 323.846965,92.3129292 325.331734,92.3129292 C326.239094,92.3129292 326.898991,91.8180059 327.393915,91.2405954 C327.641376,90.9931338 327.806351,90.663185 327.888838,90.4157233 C327.971325,90.1682617 328.053812,89.9208001 328.1363,89.8383129 L329.043659,90.1682617 C328.796197,91.4055698 328.1363,93.1378013 326.486555,94.622571 C324.836811,96.1073408 322.362195,97.2621617 318.980219,97.2621617 C310.97896,97.2621617 308.091908,92.5603908 308.091908,84.8890803 C308.091908,77.2177698 307.349523,73.0934093 305.204855,70.9487418 C303.060188,68.8040744 299.595725,68.6391 294.316544,68.6391 Z M294.316544,67.4017918 C304.627445,67.484279 309.246729,62.0401232 309.246729,52.3891196 C309.246729,46.6975022 307.679472,43.3155266 305.039881,41.4183207 C302.40029,39.5211149 298.605879,39.1086789 294.316544,39.4386277 L294.316544,67.4017918 Z" id="ATELIER" fill="#000000"></path>
            <path d="M122.725673,16.7670005 C119.863435,16.6410326 117.024758,16.1822439 114.353839,14.5062069 C113.750668,14.1283029 113.034401,14.1004574 112.37374,13.9028866 C110.51993,13.3473015 110.337093,13.0807798 110.363482,10.9830815 C110.388928,8.80184655 110.626427,8.24758745 112.336984,7.95454616 C115.545103,7.40691696 118.770186,7.0687924 121.491998,6.70680022 C128.540624,7.25840735 135.060532,7.79145079 141.58421,8.26217322 C143.231622,8.38018532 144.886575,8.23300169 146.533987,8.32979813 C147.48681,8.38548924 148.44246,8.61620953 149.377376,8.88936114 C150.329256,9.16781667 151.250035,9.65975476 152.200973,9.93688431 C153.110442,10.2007541 153.830479,10.7921406 153.813514,12.1486168 C153.797493,13.4454239 154.027452,15.0816816 152.820166,15.7088695" id="Fill-3-Copy-2" fill="#271C75" transform="translate(132.091300, 11.736900) rotate(-18.000000) translate(-132.091300, -11.736900) "></path>
        </g>
    </g>
</svg>