<?xml version="1.0" encoding="UTF-8"?>
<svg width="330px" height="95px" viewBox="0 0 330 95" version="1.1" xmlns="http://www.w3.org/2000/svg" xmlns:xlink="http://www.w3.org/1999/xlink">
    <!-- Generator: Sketch 46.2 (44496) - http://www.bohemiancoding.com/sketch -->
    <title>Group 9</title>
    <desc>Created with Sketch.</desc>
    <defs></defs>
    <g id="Page-1" stroke="none" stroke-width="1" fill="none" fill-rule="evenodd">
        <g id="Group-9" transform="translate(0.000000, -3.000000)">
            <path d="M55.9055878,95.7253729 L60.3598971,95.7253729 L60.3598971,96.7977067 L36.9335296,96.7977067 L36.9335296,95.7253729 L41.8827622,95.7253729 L33.6340412,74.9385961 L15.7343167,74.9385961 L6.24828754,95.7253729 L11.1975201,95.7253729 L11.1975201,96.7977067 L0.309208441,96.7977067 L0.309208441,95.7253729 L4.76351777,95.7253729 L31.6543482,37.4069156 L32.7266819,37.4069156 L55.9055878,95.7253729 Z M25.302833,53.9868448 L16.1467527,73.7837751 L33.2216051,73.7837751 L25.302833,53.9868448 Z M72.9529447,40.2114808 C68.3336609,40.2114808 64.2093004,40.3764552 61.2397609,41.9437122 C58.1877341,43.5934564 56.0430667,46.6454831 55.6306306,52.502075 L54.4758097,52.502075 L54.4758097,39.0566598 L104.380572,39.0566598 L104.380572,52.502075 L103.225751,52.502075 C102.64834,46.8104575 100.668647,43.6759436 97.6991076,42.0261994 C94.6470808,40.3764552 90.6052076,40.2114808 85.9859238,40.2114808 L85.9859238,95.7253729 L90.9351564,95.7253729 L90.9351564,96.7977067 L68.0037121,96.7977067 L68.0037121,95.7253729 L72.9529447,95.7253729 L72.9529447,40.2114808 Z M106.497743,39.0566598 L148.318759,39.0566598 L148.318759,52.502075 L147.163938,52.502075 C146.586527,46.6454831 144.689322,43.5934564 141.637295,41.9437122 C138.585268,40.3764552 134.460908,40.2114808 129.841624,40.2114808 L124.479955,40.2114808 L124.479955,67.1023111 L128.521828,67.1023111 C130.748983,67.1023111 133.058625,67.1023111 134.295933,66.8548495 C139.822576,66.277439 142.297193,63.4728739 142.709629,58.8535902 L143.781962,58.8535902 L143.781962,77.7431612 L142.709629,77.7431612 C142.462167,72.4639798 140.235012,69.0820042 134.37842,68.5045937 C132.811163,68.2571321 130.336547,68.2571321 128.274367,68.2571321 L124.479955,68.2571321 L124.479955,95.6428857 L131.73883,95.6428857 C136.440601,95.6428857 140.647448,95.1479625 143.699475,93.0857822 C146.669015,91.023602 148.648708,87.2291903 148.978657,80.8776752 L150.133477,80.8776752 L150.133477,96.7977067 L106.497743,96.7977067 L106.497743,95.7253729 L111.446976,95.7253729 L111.446976,40.1289935 L106.497743,40.1289935 L106.497743,39.0566598 Z M173.944786,95.6428857 L179.801377,95.6428857 C184.503148,95.6428857 188.709996,95.1479625 191.762023,93.0857822 C194.731562,91.023602 196.711255,87.2291903 197.041204,80.8776752 L198.196025,80.8776752 L198.196025,96.7977067 L155.880087,96.7977067 L155.880087,95.6428857 L160.829319,95.6428857 L160.829319,40.1289935 L155.880087,40.1289935 L155.880087,39.0566598 L179.636403,39.0566598 L179.636403,40.1289935 L173.944786,40.1289935 L173.944786,95.6428857 Z M218.130434,95.7253729 L223.079667,95.7253729 L223.079667,96.7977067 L200.065735,96.7977067 L200.065735,95.7253729 L205.014968,95.7253729 L205.014968,40.1289935 L200.065735,40.1289935 L200.065735,39.0566598 L223.079667,39.0566598 L223.079667,40.1289935 L218.130434,40.1289935 L218.130434,95.7253729 Z M230.47602,39.0566598 L272.297036,39.0566598 L272.297036,52.502075 L271.142215,52.502075 C270.564804,46.6454831 268.667598,43.5934564 265.615572,41.9437122 C262.563545,40.3764552 258.439184,40.2114808 253.819901,40.2114808 L248.458232,40.2114808 L248.458232,67.1023111 L252.500105,67.1023111 C254.72726,67.1023111 257.036902,67.1023111 258.27421,66.8548495 C263.800853,66.277439 266.275469,63.4728739 266.687905,58.8535902 L267.760239,58.8535902 L267.760239,77.7431612 L266.687905,77.7431612 C266.440444,72.4639798 264.213289,69.0820042 258.356697,68.5045937 C256.78944,68.2571321 254.314824,68.2571321 252.252644,68.2571321 L248.458232,68.2571321 L248.458232,95.6428857 L255.717106,95.6428857 C260.418877,95.6428857 264.625725,95.1479625 267.677752,93.0857822 C270.647291,91.023602 272.626984,87.2291903 272.956933,80.8776752 L274.111754,80.8776752 L274.111754,96.7977067 L230.47602,96.7977067 L230.47602,95.7253729 L235.425253,95.7253729 L235.425253,40.1289935 L230.47602,40.1289935 L230.47602,39.0566598 Z M294.376112,69.2469786 L294.376112,95.7253729 L299.325345,95.7253729 L299.325345,96.7977067 L276.311413,96.7977067 L276.311413,95.7253729 L281.260646,95.7253729 L281.260646,40.2114808 L276.311413,40.2114808 L276.311413,39.0566598 L289.591854,39.0566598 C291.571547,39.0566598 293.468753,38.9741726 295.283472,38.8091982 C297.09819,38.726711 299.242858,38.6442238 301.634987,38.6442238 C305.346911,38.6442238 310.70858,39.4690959 315.080402,41.7787377 C319.369737,44.0883796 322.751712,47.9652785 322.751712,53.9868448 C322.751712,58.3586669 320.772019,61.9056169 317.637505,64.297746 C314.502991,66.6898751 310.131169,68.0921577 305.759347,68.3396193 L305.759347,68.4221065 C312.358324,68.4221065 316.400197,70.1543379 318.792326,72.7939286 C321.101968,75.5160065 321.761866,79.227931 321.761866,82.9398554 C321.761866,86.4868054 322.009328,89.0439089 322.504251,90.6111659 C322.916687,92.1784229 323.906533,92.9208078 325.391303,92.9208078 C326.298662,92.9208078 326.95856,92.4258845 327.453483,91.8484741 C327.700945,91.6010124 327.865919,91.2710636 327.948407,91.023602 C328.030894,90.7761403 328.113381,90.5286787 328.195868,90.4461915 L329.103228,90.7761403 C328.855766,92.0134485 328.195868,93.7456799 326.546124,95.2304497 C324.89638,96.7152194 322.421764,97.8700404 319.039788,97.8700404 C311.038529,97.8700404 308.151476,93.1682694 308.151476,85.4969589 C308.151476,77.8256484 307.409091,73.7012879 305.264424,71.5566205 C303.119757,69.411953 299.655294,69.2469786 294.376112,69.2469786 Z M294.376112,68.0096704 C304.687014,68.0921577 309.306297,62.6480018 309.306297,52.9969983 C309.306297,47.3053808 307.73904,43.9234052 305.09945,42.0261994 C302.459859,40.1289935 298.665447,39.7165575 294.376112,40.0465063 L294.376112,68.0096704 Z" id="ATELIER-Copy" fill="#FFFFFF"></path>
            <path d="M122.855249,17.0602003 C119.993011,16.9342323 117.154334,16.4754437 114.483415,14.7994067 C113.880244,14.4215027 113.163977,14.3936572 112.503316,14.1960864 C110.649506,13.6405013 110.466669,13.3739796 110.493058,11.2762813 C110.518504,9.09504633 110.756003,8.54078724 112.46656,8.24774595 C115.674679,7.70011675 118.899762,7.36199218 121.621574,7 C128.6702,7.55160714 135.190108,8.08465057 141.713786,8.555373 C143.361198,8.67338511 145.016151,8.52620147 146.663563,8.62299792 C147.616386,8.67868902 148.572036,8.90940931 149.506952,9.18256092 C150.458832,9.46101645 151.379611,9.95295454 152.330549,10.2300841 C153.240019,10.4939538 153.960055,11.0853403 153.94309,12.4418165 C153.927069,13.7386237 154.157028,15.3748814 152.949742,16.0020693" id="Fill-3-Copy-3" fill="#FF95B2" transform="translate(132.220876, 12.030100) rotate(-18.000000) translate(-132.220876, -12.030100) "></path>
        </g>
    </g>
</svg>